<svg height="81" viewBox="0 0 80 81" width="80" xmlns="http://www.w3.org/2000/svg"><g fill="#d0021b"><path d="m60.6642832 24c1.4209263 0 3.0546424-.8123026 4.5712163-1.8373681-.6032622-.7905956-1.2133308-1.5508735-1.8341466-2.2948264-1.147058.755434-2.1201945 1.1929797-2.7370697 1.1929797-.228552 0-.4089217-.0590212-.5319741-.1824453-.8104994-.8115848 1.1603125-4.1013384 4.4019519-7.3480371 2.7490706-2.7533612 5.528949-4.59108797 6.8046124-4.59108797.2283726 0 .4087423.0590212.5319741.18226571.5824848.58357346-.2874809 2.45430906-2.018457 4.66248736.6383691.7565107 1.2699318 1.5419039 1.8959416 2.3450573 2.6641696-3.1918036 4.5147947-6.76500183 2.1975726-9.08584084-.6716844-.67273278-1.5975346-1.04318436-2.6070316-1.04318436-3.1013914 0-7.2430879 3.81269128-8.879849 5.4520066-3.6240515 3.6298874-7.3296009 8.5722315-4.4019519 11.5046294.6718638.6727328 1.597714 1.043364 2.607211 1.043364z"/><path d="m49.6602208 2.54462412c.0929236.05761891 3.1932035 2.02899573 7.2919235 5.45537588.4750601-.53242554.9733066-1.05606443 1.5051828-1.56365124.176289-.1682944.3631978-.31648128.5426729-.47919982-4.1649171-3.46659518-7.370687-5.49069054-7.7595494-5.73214902-.6697566-.41904643-1.5674855-.23520659-2.0064382.40552883-.4361211.64073515-.2449643 1.49775257.4262084 1.91409537z"/><path d="m25.1133394 53 29.0037943-32.3465277c-.0958783-3.5138199 1.9472549-8.0565864 5.7565395-11.90011335 3.7258059-3.7596462 8.138827-5.8661761 11.5886988-5.8661761 1.6714958 0 3.1171797.49464862 4.1486134 1.53540182 2.784662 2.80982252 1.6161342 8.66066743-2.4821825 13.83024743.5635686.8021517 1.1199773 1.6168154 1.6564766 2.4582641 2.2542751-2.6642649 3.9210553-5.6062523 4.6994334-8.4860338 1.0923838-4.04159784.4352071-7.5376197-1.8505034-9.84398249-1.5438324-1.55778182-3.6779539-2.38107991-6.1718375-2.38107991-4.3581834 0-9.4468932 2.5090156-13.6119229 6.71185418-3.8697107 3.90449902-6.2595078 8.59828572-6.5646067 12.79583792l-28.2858424 31.5459618c.7024089.6652292 1.4041194 1.3341591 2.1133394 1.9463461z"/><path d="m21.6728948 61.4991124-18.76992504 16.6540579 16.83634084-18.248797c-.7211297-.6152724-1.441019-1.2407967-2.1578965-1.9043733l-16.83102529 18.2432368c-1.03793052 1.1249009-.9939895 2.8503048.09993042 3.9229049.56520991.5544576 1.30848708.8338583 2.05300498.8338583.6959699 0 1.39300287-.2441282 1.94722745-.7358596l19.14944834-16.9907986c-.7771191-.5608864-1.5522892-1.1608683-2.3271052-1.7742294z"/><path d="m59.4623773 26.1449781-31.4623773 29.1350058c.7859848.6112586 1.5745621 1.1713873 2.3638313 1.7200161l30.2231594-27.9875029c2.3866484-.18152 4.9418333-1.0956654 7.4130093-2.5768397-.4966206-.82657-1.0003283-1.6469482-1.5311749-2.4356574-2.3638313 1.397137-4.7342311 2.1481625-6.7732624 2.1481625-.0781317 0-.155918-.0010615-.2331854-.0031844z"/><path d="m64.7320456 13c-.2119746.201698-.4235981.398812-.6359235.6121466-.5122131.514647-.9773989 1.0264736-1.4187202 1.5330107 7.1555431 7.7858266 14.4476063 18.8302051 14.4476063 31.5946587 0 9.2668261-5.3751679 16.6802873-14.3763631 19.8256481-12.8279667 4.488134-33.0034464-.1861827-49.1836984-20.7227108-.489928-.6206096-1.3953819-.7334473-2.0200748-.2341391-.6218855.4936665-.7271708 1.4020131-.2344355 2.0282642 13.133996 16.6661823 28.9253942 23.3631216 41.787052 23.3631216 3.8422132 0 7.4247225-.5980416 10.5959172-1.7066757 10.2098709-3.5685037 16.3065944-12.0003282 16.3065944-22.5535083 0-13.8612748-7.7295237-25.590263-15.2679544-33.739816z"/></g></svg>