<?xml version="1.0" encoding="UTF-8"?>
<svg width="75px" height="74px" viewBox="0 0 75 74" version="1.1" xmlns="http://www.w3.org/2000/svg" xmlns:xlink="http://www.w3.org/1999/xlink">
    <!-- Generator: Sketch 53.2 (72643) - https://sketchapp.com -->
    <title>noun_Smile_2893609</title>
    <desc>Created with Sketch.</desc>
    <g id="v3" stroke="none" stroke-width="1" fill="none" fill-rule="evenodd" opacity="0.9">
        <g id="Artboard" transform="translate(-19.000000, -3707.000000)" fill="#FFFFFF" fill-rule="nonzero">
            <g id="Footer" transform="translate(0.000000, 3660.000000)">
                <g id="logo-lockup" transform="translate(19.000000, 45.000000)">
                    <g id="noun_Smile_2893609" opacity="0.85" transform="translate(0.000000, 2.000000)">
                        <path d="M50.8800547,28 C48.5585932,33.7624411 44.4257762,38.1522636 39.409934,40.1834075 C34.4380372,42.3663116 28.9514763,42.0348849 24.1830299,39.2635959 L22,43.9697419 C27.8844876,47.4899129 34.6947736,47.9638246 40.8726131,45.2830424 C47.0886681,42.7342414 52.1864264,37.2363928 55,30.0468876 L50.8800547,28 Z" id="Path"></path>
                        <polygon id="Path" points="18.7679676 33 15 31.0137411 19.8906824 20 30 25.3293767 28.1767223 29.4349199 21.8367679 26.0925623"></polygon>
                        <polygon id="Path" points="50.9344095 23.4341597 43.7475462 20.0925623 40.2711541 27 36 25.0137411 41.5427734 14 53 19.3293767"></polygon>
                        <path d="M37.5,74 C16.7893219,74 2.53632657e-15,57.4345357 0,37 C-2.53632657e-15,16.5654643 16.7893219,3.75376332e-15 37.5,0 C58.2106781,-3.75376332e-15 75,16.5654643 75,37 C74.9767093,57.4250095 58.2010231,73.9770198 37.5,74 Z M37.5,4.44 C19.2746033,4.44 4.5,19.0176085 4.5,37 C4.5,54.9823915 19.2746033,69.56 37.5,69.56 C55.7253967,69.56 70.5,54.9823915 70.5,37 C70.479425,19.0260241 55.7168675,4.46030067 37.5,4.44 Z" id="Shape"></path>
                    </g>
                </g>
            </g>
        </g>
    </g>
</svg>