<svg height="92" viewBox="0 0 96 92" width="96" xmlns="http://www.w3.org/2000/svg"><g fill="#d0021b" opacity=".866606"><path d="m84.8 7.7h-15.5943755v-4c0-1.8-.6783565-3.3-2.4783565-3.3s-2.427268 1.5-2.427268 3.3v4h-33.4558623v-4c0-1.8.0155497-3.3-1.7844503-3.3s-2.5269928 1.5-2.5269928 3.3v4h-15.3326946c-5.9 0-10.7 4.8-10.7 10.7v9.2299193 53.3700807c0 5.9 4.8 10.7 10.7 10.7h73.6c5.9 0 10.7-4.8 10.7-10.7v-62.7c.5-7.1494259-4.8-10.6-10.7-10.6zm7.1 76.4896552c0 2.3706896-1.9364303 4.3103448-4.4107579 4.3103448h-79.17848415c-1.60968512 0-2.5792016-1.4742395-3.31600421-2.6067157-.61474933-.9448785-1.09475374-2.2262541-1.09475374-2.9845779v-44.4087064h87.8924205v45.6896552zm.2-49.3896552h-88v-18.5142857c0-3.0171429 1.93643032-5.4857143 4.41075795-5.4857143h17.84332395v5.4857143c0 2.4685714.4148847 4.5257143 2.351315 4.5257143s2.4989012-2.0571429 2.4989012-4.5257143v-5.4857143h33.1720742v5.4857143c0 2.4685714.8618358 4.5257143 2.7982661 4.5257143s2.306033-2.0571429 2.306033-4.5257143v-5.4857143h18.1009912c2.3667482 0 4.4107579 2.4685714 4.4107579 5.4857143v18.5142857z"/><path d="m39 64.8c.4.3.5.9.4 1.3l-1.2 6.8c-.3 1.6 1.4 2.9 2.9 2.1l6-3.1c.4-.2 1-.2 1.4 0l6.1 3.2c1.5.8 3.2-.5 2.9-2.1l-1.1-6.7c-.1-.5.1-1 .4-1.3l5-4.8c1.2-1.2.5-3.2-1.1-3.4l-6.7-1c-.5-.1-.9-.4-1.1-.8l-3.1-6.2c-.7-1.5-2.8-1.5-3.6 0l-3 6.1c-.2.4-.6.8-1.1.8l-6.9 1c-1.6.2-2.3 2.2-1.1 3.4z"/></g></svg>