<svg height="81" viewBox="0 0 74 81" width="74" xmlns="http://www.w3.org/2000/svg"><g fill="#d0021b"><path d="m29.7 20.3v-5.2c1.2-.1 2.2-1.2 2.2-2.5v-6c0-1.3-1-2.3-2.2-2.5v-2.9c0-.6-.4-1-1-1h-9.9c-.6 0-1 .4-1 1v2.9c-1.2.1-2.2 1.2-2.2 2.5v6c0 1.3 1 2.3 2.2 2.5v5.2c-10.1 2.7-17.1 11.8-17.1 22.3v33.5c0 2.3 1.9 4.2 4.2 4.2h37.7c2.3 0 4.2-1.9 4.2-4.2v-33.5c0-10.5-7-19.6-17.1-22.3zm-9.9-18h7.9v1.9h-7.9zm-2.2 10.4v-6c0-.3.2-.5.5-.5h11.3c.3 0 .5.2.5.5v6c0 .3-.2.5-.5.5h-11.3c-.3 0-.5-.2-.5-.5zm27.2 63.4c0 1.2-1 2.2-2.2 2.2h-37.7c-1.2 0-2.2-1-2.2-2.2v-5.7h42.2v5.7zm0-33.9v.4 25.8h-42.1v-25.8c0-.1 0-.3 0-.4zm-42-2c1-8.8 7.4-16.1 16.2-18.1.5-.1.8-.5.8-1v-5.9h7.9v5.9c0 .5.3.9.8 1 8.8 2 15.2 9.3 16.2 18.1z"/><path d="m72.7 52.1h-22.3c-.3 0-.5.1-.7.3s-.3.5-.3.8l1.8 24.3c.1 1.8 1.7 3.2 3.5 3.2h13.7c1.8 0 3.3-1.4 3.5-3.2l1.8-24.3c0-.3-.1-.6-.3-.8-.1-.2-.4-.3-.7-.3zm-2.8 25.2c-.1.8-.7 1.4-1.5 1.4h-13.7c-.8 0-1.4-.6-1.5-1.4l-1.3-17.7c1.8.1 2.9.5 3.9.9 1.4.5 2.8 1.1 5.7 1.1 2.8 0 4.3-.5 5.7-1.1 1.1-.4 2.2-.8 4.1-.9zm1.5-19.7c-2.4.1-3.7.6-4.9 1-1.3.5-2.5.9-4.9.9-2.5 0-3.7-.5-4.9-.9-1.2-.5-2.5-.9-4.8-1l-.3-3.5h20.2z"/></g></svg>