<svg height="80" viewBox="0 0 62 80" width="62" xmlns="http://www.w3.org/2000/svg"><path d="m29.9741211 0h-16.7177734c-2.0039062 0-3.6337891 1.5390625-3.6337891 3.4316406v4.6337891h-5.0498047c-2.2358398 0-4.0546875 1.8095703-4.0546875 4.0332031v55.7119141c0 2.2236328 1.8188477 4.0332031 4.0546875 4.0332031h5.0498047v4.7246094c0 1.8925781 1.6298828 3.4316406 3.6337891 3.4316406h16.7177734c2.0039062 0 3.6337891-1.5390625 3.6337891-3.4316406v-4.7246094h5.7319336c2.2358398 0 4.0546875-1.8095703 4.0546875-4.0332031v-13.0932007c5.1455688-.8117676 9.0439453-7.8336182 9.0439453-16.6558228v-10.0029296c0-7.9882812 3.6835938-14.7373047 8.043457-14.7373047.5522461 0 1-.4472656 1-1s-.4477539-1-1-1c-5.6318359 0-10.043457 7.3515625-10.043457 16.7373047v10.0029297c0 7.368042-3.1358032 13.6682739-7.0439453 14.6043091v-40.5671998c0-2.2236328-1.8188477-4.0332031-4.0546875-4.0332031h-5.7319336v-4.6337891c0-1.8925781-1.6298829-3.4316406-3.6337891-3.4316406zm-18.3515625 3.4316406c0-.7890625.7329102-1.4316406 1.6337891-1.4316406h16.7177734c.9008789 0 1.6337891.6425781 1.6337891 1.4316406v4.6337891h-19.9853516zm29.7719726 53.4765625h-38.8764648v-3.984375h38.8764648zm-38.8764648-11.96875v-3.984375h38.8764648v3.984375zm38.8764648 2v3.984375h-38.8764648v-3.984375zm-38.8764648-7.984375v-3.984375h38.8764648v3.984375zm0-5.984375v-3.984375h38.8764648v3.984375zm38.8764648-5.984375h-38.8764648v-3.984375h38.8764648zm-38.8764648 31.921875h38.8764648v3.984375h-38.8764648zm38.8764648-37.90625h-38.8764648v-3.984375h38.8764648zm-9.786621 55.5664063c0 .7890625-.7329102 1.4316406-1.6337891 1.4316406h-16.7177734c-.9008789 0-1.6337891-.6425781-1.6337891-1.4316406v-4.7246094h19.9853516zm7.7319336-6.7246094h-34.7670899c-1.1328125 0-2.0546875-.9121094-2.0546875-2.0332031v-2.9179688h38.8764648v2.9179688c0 1.1210937-.921875 2.0332031-2.0546874 2.0332031zm2.0546874-57.7451172v2.9189453h-38.8764648v-2.9189453c0-1.1210938.921875-2.0332031 2.0546875-2.0332031h34.7670898c1.1328125 0 2.0546875.9121094 2.0546875 2.0332031z" fill="#d0021b"/></svg>