<svg height="153" viewBox="0 0 167 153" width="167" xmlns="http://www.w3.org/2000/svg"><g fill="#d0021b" fill-rule="evenodd"><g fill-rule="nonzero" transform="translate(53)"><path d="m46.9922517 24c-3.8553652 0-6.9922517 3.1434609-6.9922517 7.0077483 0 3.8553652 3.1368866 6.9922517 6.9922517 6.9922517 3.8642874 0 7.0077483-3.1368866 7.0077483-6.9922517 0-3.8642874-3.1434608-7.0077483-7.0077483-7.0077483zm0 12.0765438c-2.7950223 0-5.0687955-2.2737732-5.0687955-5.0687955 0-2.4731157 1.7712491-4.5341043 4.1070674-4.986734v2.3494952c0 .5311106.4306175.9617281.9617281.9617281s.9617281-.4306175.9617281-.9617281v-2.3497886c2.3443297.4514557 4.122564 2.5128551 4.122564 4.9870274 0 2.7950223-2.2808171 5.0687955-5.0842921 5.0687955z"/><path d="m46.9950045 22c2.7598839 0 5.0049955-2.2408297 5.0049955-4.9950045 0-2.7598839-2.2451115-5.0049955-5.0049955-5.0049955-2.7541749 0-4.9950045 2.2451115-4.9950045 5.0049955 0 2.7541748 2.2408297 4.9950045 4.9950045 4.9950045zm0-8.0512869c1.685142 0 3.0562824 1.3711404 3.0562824 3.0562824 0 1.6799087-1.3711404 3.0462914-3.0562824 3.0462914-1.6799087 0-3.0462914-1.3663828-3.0462914-3.0462914 0-1.6851421 1.3663827-3.0562824 3.0462914-3.0562824z"/><path d="m58.5783765 10.2189247h-1.8214074v-.1597601c0-2.91265101-2.4301979-5.2826458-5.4168368-5.2826458h-2.0393806v-3.87517258c0-.49776493-.4138332-.90134622-.9242424-.90134622-.5104093 0-.9242425.40358129-.9242425.90134622v3.87517258h-34.1852361v-3.87517258c0-.49776493-.4138332-.90134622-.9242425-.90134622-.5104092 0-.9242424.40358129-.9242424.90134622v3.87517258h-4.129757c-2.98663884 0-5.41683679 2.36999479-5.41683679 5.2826458v4.275233c0 1.1108388.13448448 2.2207974.39939186 3.2995081l1.69278975 6.8956507c.09973518.4053417.4715983.6914134.89897012.6914134h.00225644l2.8088305-.0061615v9.7321626c0 .497765.41383315.9013462.92424242.9013462.51040928 0 .92424243-.4035812.92424243-.9013462v-4.4165084h1.32273167c.5104093 0 .9242424-.4035813.9242424-.9013462s-.4138331-.9013462-.9242424-.9013462h-1.32273167v-3.5170878l5.13117007-.0112778c.5095067-.0013203.921986-.4044615.921986-.9013462v-3.7726269c0-2.7238437 2.2726977-4.9402399 5.065733-4.9402399h10.4825698c2.7930354 0 5.065733 2.2163963 5.065733 4.9402399v17.475466h-30.83530866c-2.95234075 0-5.35455874 2.342708-5.35455874 5.2219107v5.4155592c0 1.3022868 1.08625565 2.3616327 2.42162347 2.3616327h51.91372213c1.3353679 0 2.4216235-1.0593459 2.4216235-2.3616327v-27.5183466h1.8214074c1.3353678 0 2.4216235-1.0593459 2.4216235-2.3616328v-6.1773903c0-1.3022869-1.0862557-2.3620729-2.4216235-2.3620729zm-44.8510298 13.1799879-5.12840591.0111128c-.00016923 0-.00033846-.0001101-.00050769-.0001101s-.00033846.0001101-.00050768.0001101l-3.00598795.0064917-1.05946029-4.3157231h9.35344162c-.1018787.4596954-.1585721.9356198-.1585721 1.4246375zm41.1811376 25.2394546c0 .3080773-.2572355.5589403-.5731387.5589403h-51.91372213c-.31590319 0-.57313862-.250863-.57313862-.5589403v-5.4155592c0-1.8854333 1.57274655-3.4192182 3.50607389-3.4192182h31.75955106c.5104093 0 .9242425-.4035812.9242425-.9013462v-18.3768122c0-3.7180531-3.1017179-6.7429323-6.9142179-6.7429323h-10.4825698c-2.614268 0-4.8935658 1.4227671-6.0685564 3.5156023h-10.48307752l-.02064656-.0840611c-.23151182-.9413962-.34884735-1.9105195-.34884735-2.8796427v-4.275233c0-1.91888156 1.60072651-3.47995336 3.56835193-3.47995336h44.0513435c1.9676255 0 3.568352 1.5610718 3.568352 3.47995336v38.5792026zm4.2430309-29.8799793c0 .3080774-.2572355.5589403-.5731387.5589403h-1.8214074v-7.2957111h1.8214074c.3159032 0 .5731387.250863.5731387.5593805z"/></g><g fill-rule="nonzero"><path d="m28.2677577 0h-27.5361383c-.47023211.07174965-.79319373.51262102-.72171156.98461273.02583693.16943291 2.58713788 17.07728217 4.69973748 31.48772477.20755667 1.4185684 1.45375791 2.5276625 2.83603364 2.5276625h13.90888044c1.3822757 0 2.6284769-1.1090941 2.8360336-2.5276625 2.1125996-14.4104426 4.6747618-31.31829186 4.6997375-31.48772477.0706209-.47199171-.2532019-.91286308-.7225728-.98461273zm-26.40361955 1.72890733h25.27023955c-.0835394.55325035-.1989444 1.32174965-.3419087 2.26919087h-24.58556092c-.14296434-.94744122-.25923053-1.71594052-.34276993-2.26919087zm20.72207875 30.49187417c-.0852619.5791839-.5925269 1.0503112-1.1316575 1.0503112h-13.90888044c-.5391306 0-1.04725688-.4711273-1.13165752-1.0503112-.44525642-3.0394191-.91118238-6.1877594-1.36849603-9.2695367 2.37010767 2.0435685 5.75474539 3.2538036 9.45459379 3.2538036 3.6998483 0 7.0827636-1.211964 9.4554549-3.2538036-.4581748 3.0817773-.9241008 6.230982-1.3693572 9.2695367zm-8.0860977-7.7446404c-4.1993623 0-8.06715068-1.7946058-9.90932375-4.5790111-.82419806-5.531639-1.58897117-10.62499999-2.12293438-14.17098892h24.06365493c-.5339632 3.54598893-1.2987363 8.63848552-2.1220731 14.16926002-1.8438956 2.7861342-5.7108227 4.58074-9.9093237 4.58074z" transform="translate(52 118)"/><path d="m28.2677577 0h-27.5361383c-.47023211.07174965-.79319373.51262102-.72171156.98461273.02583693.16943291 2.58713788 17.07728217 4.69973748 31.48772477.20755667 1.4185684 1.45375791 2.5276625 2.83603364 2.5276625h13.90888044c1.3822757 0 2.6284769-1.1090941 2.8360336-2.5276625 2.1125996-14.4104426 4.6747618-31.31829186 4.6997375-31.48772477.0706209-.47199171-.2532019-.91286308-.7225728-.98461273zm-26.40361955 1.72890733h25.27023955c-.0835394.55325035-.1989444 1.32174965-.3419087 2.26919087h-24.58556092c-.14296434-.94744122-.25923053-1.71594052-.34276993-2.26919087zm20.72207875 30.49187417c-.0852619.5791839-.5925269 1.0503112-1.1316575 1.0503112h-13.90888044c-.5391306 0-1.04725688-.4711273-1.13165752-1.0503112-.44525642-3.0394191-.91118238-6.1877594-1.36849603-9.2695367 2.37010767 2.0435685 5.75474539 3.2538036 9.45459379 3.2538036 3.6998483 0 7.0827636-1.211964 9.4554549-3.2538036-.4581748 3.0817773-.9241008 6.230982-1.3693572 9.2695367zm-8.0860977-7.7446404c-4.1993623 0-8.06715068-1.7946058-9.90932375-4.5790111-.82419806-5.531639-1.58897117-10.62499999-2.12293438-14.17098892h24.06365493c-.5339632 3.54598893-1.2987363 8.63848552-2.1220731 14.16926002-1.8438956 2.7861342-5.7108227 4.58074-9.9093237 4.58074z" transform="translate(86 118)"/></g><g transform="translate(0 37)"><text font-family="Prompt-ExtraLight, Prompt" font-size="60" font-weight="300"><tspan x="71" y="65">+</tspan></text><g fill-rule="nonzero"><g opacity=".854585" transform="matrix(-1 0 0 1 167 20)"><path d="m33.2533698 19c-1.547641 3.6394365-4.3028523 6.411956-7.6467471 7.6947837-3.3145979 1.3786762-6.9723051 1.1693541-10.1512694-.5809337l-1.4553533 2.9723028c3.9229917 2.2232659 8.4631824 2.5225785 12.5817421.8294529 4.1440366-1.609769 7.5425422-5.0820944 9.4182579-9.6228346z"/><path d="m12.5119784 23-2.5119784-1.3751023 3.2604549-7.6248977 6.7395451 3.6895685-1.2155184 2.8422991-4.2266363-2.3139399z"/><path d="m33.6634414 15.5313414-4.6503233-2.3134137-2.2494301 4.7820723-2.763688-1.3751023 3.5865004-7.6248977 7.4134996 3.6895685z"/><path d="m25 50c-13.8071187 0-25-11.1928813-25-25s11.1928813-25 25-25 25 11.1928813 25 25c-.0155271 13.8006821-11.1993179 24.9844729-25 25zm0-47c-12.1502645 0-22 9.8497355-22 22s9.8497355 22 22 22 22-9.8497355 22-22c-.0137167-12.1445783-9.8554217-21.98628333-22-22z"/></g><g opacity=".85" transform="translate(0 20)"><path d="m33.2533698 19c-1.547641 3.6394365-4.3028523 6.411956-7.6467471 7.6947837-3.3145979 1.3786762-6.9723051 1.1693541-10.1512694-.5809337l-1.4553533 2.9723028c3.9229917 2.2232659 8.4631824 2.5225785 12.5817421.8294529 4.1440366-1.609769 7.5425422-5.0820944 9.4182579-9.6228346z"/><path d="m12.5119784 23-2.5119784-1.3751023 3.2604549-7.6248977 6.7395451 3.6895685-1.2155184 2.8422991-4.2266363-2.3139399z"/><path d="m33.6634414 15.5313414-4.6503233-2.3134137-2.2494301 4.7820723-2.763688-1.3751023 3.5865004-7.6248977 7.4134996 3.6895685z"/><path d="m25 50c-13.8071187 0-25-11.1928813-25-25s11.1928813-25 25-25 25 11.1928813 25 25c-.0155271 13.8006821-11.1993179 24.9844729-25 25zm0-47c-12.1502645 0-22 9.8497355-22 22s9.8497355 22 22 22 22-9.8497355 22-22c-.0137167-12.1445783-9.8554217-21.98628333-22-22z"/></g></g></g></g></svg>